<svg width="256" height="62" viewBox="0 0 256 62" fill="none" xmlns="http://www.w3.org/2000/svg">
<path fill-rule="evenodd" clip-rule="evenodd" d="M99.6792 44.2221L96.1832 60.4753H88.1426L101.427 1.57172H110.952L123.45 60.4753H115.322L111.913 44.2221H99.6792ZM110.952 37.6672L108.243 23.5946C107.456 19.5743 106.67 14.3333 106.059 10.1367H105.708C105.098 14.4193 104.221 19.8365 103.437 23.5946L100.641 37.6672H110.952ZM154.141 0V49.5519C154.141 52.7871 154.316 57.5066 154.49 60.4767H147.412L146.887 55.3217H146.625C145.227 58.2918 141.993 61.1774 137.712 61.1774C129.846 61.1774 125.039 52.6109 125.039 39.4166C125.039 24.3841 131.418 17.3049 138.149 17.3049C141.556 17.3049 144.265 18.8795 145.751 22.1118H145.926V0H154.141V0ZM145.925 34.1713C145.925 33.3862 145.925 32.4248 145.837 31.5479C145.4 27.7038 143.215 24.3827 140.245 24.3827C135.087 24.3827 133.341 31.5479 133.341 39.4152C133.341 48.155 135.613 54.2714 139.983 54.2714C141.818 54.2714 144.264 53.3101 145.662 48.2424C145.837 47.5432 145.925 46.493 145.925 45.5345V34.1713V34.1713ZM173.71 61.1759C165.234 61.1759 159.114 53.9218 159.114 39.3292C159.114 23.8583 166.367 17.3034 174.145 17.3034C182.536 17.3034 188.565 24.8197 188.565 39.153C188.565 56.0209 180.262 61.1759 173.796 61.1759H173.71ZM173.971 54.7099C179.038 54.7099 180.176 45.7079 180.176 39.2418C180.176 32.8603 179.04 23.7723 173.797 23.7723C168.377 23.7723 167.33 32.8603 167.33 39.2418C167.33 46.3196 168.553 54.7099 173.885 54.7099H173.971ZM193.517 0H201.731V22.8095H201.906C204.091 18.9654 207.063 17.3034 210.821 17.3034C218.073 17.3034 222.619 25.5188 222.619 38.5412C222.619 53.747 216.414 61.1759 209.422 61.1759C205.227 61.1759 202.867 58.9021 201.031 55.144H200.684L200.245 60.4753H193.168C193.342 57.5926 193.517 52.7857 193.517 49.5505V0V0ZM201.731 45.4427C201.731 46.407 201.819 47.3684 202.081 48.0662C203.39 53.2241 205.926 54.2714 207.585 54.2714C212.48 54.2714 214.315 47.8054 214.315 39.0656C214.315 30.9375 212.394 24.3827 207.498 24.3827C204.789 24.3827 202.604 27.6164 201.992 30.6754C201.817 31.5493 201.73 32.687 201.73 33.5595V45.4427H201.731V45.4427ZM234.742 40.8995C234.829 51.8243 239.547 54.5322 244.529 54.5322C247.5 54.5322 250.035 53.8344 251.87 52.959L253.094 58.9021C250.559 60.2131 246.714 60.9137 242.956 60.9137C232.294 60.9137 226.701 52.8731 226.701 39.7633C226.701 25.867 233.08 17.302 241.907 17.302C250.734 17.302 254.842 25.7796 254.842 36.4436C254.842 38.5397 254.753 39.8522 254.667 40.9869L234.742 40.8995V40.8995ZM247.063 35.0453C247.151 27.529 244.529 23.5101 241.296 23.5101C237.012 23.5101 235.09 29.7154 234.829 35.0453H247.063Z" fill="#D2D1DA"/>
<path fill-rule="evenodd" clip-rule="evenodd" d="M41.8448 1.729H66.3848V60.4752L41.8448 1.729ZM24.5575 1.729H0V60.4752L24.5575 1.729ZM33.2026 23.379L48.8382 60.4752H38.5922L33.9164 48.6604H22.4716L33.2026 23.379Z" fill="#D2D1DA"/>
<path fill-rule="evenodd" clip-rule="evenodd" d="M254.144 17.1941C254.391 17.1953 254.634 17.2452 254.861 17.3409C255.088 17.4367 255.293 17.5764 255.466 17.7521C255.638 17.9277 255.774 18.1358 255.866 18.3643C255.958 18.5928 256.003 18.8372 256 19.0834C256 20.1497 255.177 20.9814 254.136 20.9814C253.103 20.9814 252.262 20.1511 252.262 19.0834C252.261 18.8363 252.308 18.5913 252.402 18.3625C252.495 18.1337 252.633 17.9257 252.807 17.7502C252.981 17.5747 253.188 17.4352 253.416 17.3398C253.644 17.2444 253.888 17.1949 254.136 17.1941H254.144ZM254.136 17.4869C253.305 17.4869 252.624 18.2021 252.624 19.0834C252.624 19.9821 253.305 20.6872 254.144 20.6872C254.983 20.6959 255.655 19.9821 255.655 19.0921C255.655 18.2021 254.983 17.4869 254.144 17.4869H254.136ZM253.783 20.1846H253.448V18.0754C253.624 18.0506 253.793 18.0244 254.045 18.0244C254.364 18.0244 254.573 18.0929 254.699 18.1846C254.826 18.2764 254.893 18.4192 254.893 18.6216C254.893 18.8984 254.708 19.0674 254.481 19.1344V19.1504C254.666 19.1839 254.793 19.3529 254.833 19.6631C254.884 19.9909 254.934 20.1161 254.969 20.1846H254.616C254.565 20.1161 254.516 19.9239 254.474 19.6471C254.423 19.3776 254.289 19.2771 254.019 19.2771H253.785V20.1846H253.783V20.1846ZM253.783 19.0164H254.026C254.303 19.0164 254.541 18.9159 254.541 18.6551C254.541 18.4701 254.405 18.2852 254.026 18.2852C253.919 18.2852 253.841 18.2939 253.783 18.3026V19.0164V19.0164ZM69.6203 1.729C69.8665 1.73014 70.11 1.78002 70.3369 1.87578C70.5637 1.97154 70.7693 2.11127 70.9419 2.28692C71.1144 2.46257 71.2504 2.67066 71.3421 2.89916C71.4338 3.12767 71.4793 3.37207 71.476 3.61826C71.476 4.68452 70.653 5.51626 69.6116 5.51626C68.5788 5.51626 67.7383 4.68598 67.7383 3.61826C67.737 3.37113 67.7844 3.12616 67.8779 2.89739C67.9713 2.66861 68.109 2.46051 68.283 2.28502C68.457 2.10953 68.6639 1.97009 68.8919 1.87468C69.1199 1.77927 69.3644 1.72977 69.6116 1.729H69.6203ZM69.6116 2.02178C68.7798 2.02178 68.0996 2.73699 68.0996 3.61826C68.0996 4.51701 68.7798 5.22202 69.6203 5.22202C70.4593 5.23076 71.1323 4.51701 71.1323 3.62701C71.1323 2.737 70.4593 2.02178 69.6203 2.02178H69.6116ZM69.259 4.71948H68.9226V2.61026C69.12 2.57751 69.3197 2.56095 69.5198 2.56074C69.8388 2.56074 70.0485 2.62629 70.1738 2.71952C70.3005 2.81129 70.3675 2.95549 70.3675 3.1565C70.3675 3.43326 70.1826 3.60224 69.9553 3.66925V3.68526C70.1403 3.71876 70.267 3.88774 70.3093 4.19946C70.3588 4.5272 70.4098 4.65248 70.4433 4.72094H70.0908C70.0398 4.65248 69.9888 4.4602 69.948 4.18344C69.8971 3.91396 69.763 3.81345 69.4936 3.81345H69.259V4.71948V4.71948ZM69.259 3.55126H69.5023C69.7791 3.55126 70.015 3.45075 70.015 3.19001C70.015 3.00502 69.881 2.82003 69.5023 2.82003C69.3931 2.82003 69.3173 2.82877 69.259 2.83751V3.55126V3.55126Z" fill="#D2D1DA"/>
</svg>
