<svg width="256" height="88" viewBox="0 0 256 88" fill="none" xmlns="http://www.w3.org/2000/svg">
<g clip-path="url(#clip0_363_1425)">
<path d="M59.5449 46.531C59.4392 35.4502 68.5976 30.1263 69.0095 29.8728C63.8547 22.3412 55.8477 21.306 52.9957 21.1898C46.1824 20.4926 39.6966 25.2038 36.2318 25.2038C32.7671 25.2038 27.4326 21.2848 21.7813 21.401C14.3448 21.5067 7.48925 25.7214 3.65479 32.3763C-4.05637 45.7493 1.69003 65.6082 9.22162 76.4778C12.9082 81.7911 17.2814 87.7805 23.0489 87.5586C28.6052 87.3368 30.6967 83.9671 37.3938 83.9671C44.0909 83.9671 45.9817 87.5586 51.8443 87.453C57.8125 87.3368 61.5941 82.0235 65.249 76.6891C69.4532 70.5096 71.1961 64.5413 71.3017 64.2244C71.1644 64.1716 59.6716 59.7667 59.5449 46.531Z" fill="#D2D1DA"/>
<path d="M48.5277 13.9857C51.5911 10.278 53.6509 5.13373 53.0911 0C48.6862 0.179575 43.3518 2.93658 40.1934 6.64427C37.3624 9.91888 34.88 15.1582 35.5561 20.1863C40.4469 20.5666 45.475 17.6829 48.5277 13.9857ZM98.175 57.4217L93.1046 72.7912H86.5871L103.182 23.9469H110.787L127.446 72.7912H120.706L115.488 57.4217H98.175ZM114.189 52.4887L109.414 38.429C108.326 35.2389 107.608 32.3446 106.879 29.5137H106.742C106.013 32.408 105.221 35.3763 104.281 38.3551L99.5059 52.4781L114.189 52.4887ZM132.389 49.1613C132.389 44.6719 132.252 41.0382 132.094 37.7107H137.819L138.115 43.7318H138.252C140.861 39.4537 144.991 36.9185 150.716 36.9185C159.199 36.9185 165.568 44.0909 165.568 54.7492C165.568 67.3617 157.889 73.5835 149.628 73.5835C144.991 73.5835 140.935 71.5553 138.833 68.08H138.696V87.1361H132.389V49.1613V49.1613ZM138.685 58.5098C138.685 59.4604 138.822 60.3161 138.981 61.1189C140.143 65.5343 143.977 68.5871 148.551 68.5871C155.29 68.5871 159.209 63.0836 159.209 55.0345C159.209 47.9993 155.512 41.9994 148.773 41.9994C144.431 41.9994 140.375 45.1156 139.129 49.9007C138.907 50.693 138.696 51.6437 138.696 52.5098L138.685 58.5098ZM172.16 49.1613C172.16 44.6719 172.023 41.0382 171.864 37.7107H177.589L177.885 43.7318H178.022C180.632 39.4537 184.762 36.9185 190.487 36.9185C198.969 36.9185 205.339 44.0909 205.339 54.7492C205.339 67.3617 197.66 73.5835 189.399 73.5835C184.762 73.5835 180.706 71.5553 178.603 68.08H178.466V87.1361H172.16V49.1613V49.1613ZM178.466 58.5098C178.466 59.4604 178.603 60.3161 178.762 61.1189C179.924 65.5343 183.758 68.5871 188.332 68.5871C195.072 68.5871 198.99 63.0836 198.99 55.0345C198.99 47.9993 195.293 41.9994 188.554 41.9994C184.213 41.9994 180.156 45.1156 178.91 49.9007C178.688 50.693 178.477 51.6437 178.477 52.5098L178.466 58.5098ZM211.941 21.3377H218.321V72.7807H211.941V21.3377ZM231.145 56.4077C231.282 65.0273 236.796 68.5871 243.166 68.5871C247.729 68.5871 250.486 67.7948 252.874 66.7808L253.962 71.3441C251.722 72.3582 247.877 73.5201 242.3 73.5201C231.504 73.5201 225.05 66.4216 225.05 55.8373C225.05 45.2529 231.282 36.9185 241.497 36.9185C252.947 36.9185 255.99 46.9853 255.99 53.4394C255.99 54.7492 255.852 55.7528 255.768 56.4077H231.145ZM249.842 51.8444C249.916 47.7881 248.173 41.4818 241 41.4818C234.546 41.4818 231.726 47.4289 231.219 51.8444H249.842V51.8444Z" fill="#D2D1DA"/>
</g>
<defs>
<clipPath id="clip0_363_1425">
<rect width="256" height="87.5692" fill="white"/>
</clipPath>
</defs>
</svg>
