<svg width="256" height="84" viewBox="0 0 256 84" fill="none" xmlns="http://www.w3.org/2000/svg">
<g clip-path="url(#clip0_363_1416)">
<path d="M31.5273 0.00976562H33.8038C41.7072 0.181578 49.4817 3.3601 55.0656 8.98694C53.0038 11.0916 50.8991 13.1104 48.8803 15.2151C45.7448 12.3802 41.9649 10.1896 37.8414 9.41647C31.7421 8.12788 25.1703 9.28761 20.0588 12.7668C14.475 16.4178 10.6951 22.603 9.87898 29.2178C8.97697 35.7466 10.8239 42.6191 15.0763 47.6876C19.1568 52.6272 25.385 55.7198 31.828 55.9345C37.8414 56.2782 44.1125 54.4312 48.4938 50.2218C51.93 47.258 53.5193 42.748 54.0347 38.3668C46.9045 38.3668 39.7743 38.4097 32.6441 38.3668V29.5185H62.6682C64.2146 39.0111 61.981 49.7064 54.7649 56.4929C49.9542 61.3037 43.2964 64.1386 36.5099 64.697C29.938 65.3413 23.1515 64.0956 17.3099 60.9171C10.3085 57.1802 4.72462 50.8661 1.97562 43.4352C-0.601557 36.6057 -0.64451 28.8742 1.76086 22.0017C3.95146 15.7306 8.16086 10.1896 13.5729 6.32385C18.7703 2.50104 25.0844 0.396342 31.5273 0.00976562Z" fill="#D2D1DA"/>
<path d="M203.769 2.24097H212.961V63.5779C209.911 63.5779 206.819 63.6208 203.769 63.5349C203.812 43.1322 203.769 22.6866 203.769 2.24097V2.24097Z" fill="#D2D1DA"/>
<path d="M83.1143 23.5027C88.7841 22.4289 94.9264 23.6316 99.6082 27.0249C103.861 30.0316 106.824 34.7564 107.726 39.9108C108.886 45.8812 107.426 52.4101 103.56 57.1349C99.3935 62.4181 92.5639 65.253 85.9062 64.8235C79.8069 64.4798 73.8794 61.4302 70.2713 56.4476C66.1908 50.9497 65.2028 43.3899 67.4364 36.947C69.67 30.0316 75.9841 24.7484 83.1143 23.5027V23.5027ZM84.4029 31.6638C82.0834 32.2651 79.9357 33.5967 78.3894 35.4866C74.223 40.4691 74.4807 48.5873 79.0767 53.2262C81.6968 55.8893 85.6485 57.1349 89.2995 56.4047C92.6928 55.8034 95.6566 53.5268 97.2888 50.5201C100.124 45.4087 99.3076 38.3645 94.9693 34.3698C92.1774 31.7926 88.0968 30.7188 84.4029 31.6638Z" fill="#D2D1DA"/>
<path d="M128.644 23.5027C135.13 22.2571 142.217 24.0611 147.071 28.6141C154.974 35.7014 155.833 48.9739 149.09 57.1349C145.009 62.2893 138.395 65.1242 131.866 64.8235C125.637 64.6517 119.495 61.5591 115.801 56.4477C111.635 50.8208 110.733 43.0893 113.095 36.5175C115.458 29.8168 121.643 24.7054 128.644 23.5027V23.5027ZM129.933 31.6638C127.613 32.2651 125.466 33.5967 123.919 35.4437C119.796 40.3403 119.968 48.3296 124.392 53.0114C127.012 55.8034 131.093 57.1779 134.872 56.4047C138.223 55.7604 141.229 53.5269 142.862 50.5202C145.654 45.3658 144.837 38.3215 140.456 34.3269C137.664 31.7497 133.584 30.7188 129.933 31.6638Z" fill="#D2D1DA"/>
<path d="M167.259 25.994C172.199 22.9014 178.77 22.0423 184.097 24.7054C185.772 25.4356 187.146 26.6812 188.478 27.9269C188.521 26.7671 188.478 25.5645 188.521 24.3618C191.399 24.4047 194.277 24.3618 197.197 24.4047V62.2893C197.154 68.002 195.694 74.0584 191.57 78.2249C187.06 82.8208 180.145 84.2383 173.917 83.2933C167.259 82.3054 161.46 77.4517 158.883 71.3094C161.46 70.0638 164.166 69.0759 166.83 67.9161C168.333 71.4383 171.383 74.445 175.205 75.1322C179.028 75.8195 183.452 74.8745 185.944 71.696C188.607 68.4316 188.607 63.9645 188.478 59.9698C186.502 61.9027 184.226 63.6208 181.477 64.2651C175.506 65.9403 168.934 63.8785 164.338 59.841C159.699 55.8034 156.95 49.5752 157.208 43.39C157.337 36.3886 161.289 29.645 167.259 25.994V25.994ZM176.15 31.492C173.53 31.9215 171.082 33.3819 169.407 35.4007C165.369 40.2114 165.369 47.9 169.45 52.6249C171.769 55.4168 175.506 56.9631 179.114 56.5765C182.507 56.2329 185.643 54.0853 187.318 51.1215C190.153 46.096 189.681 39.2665 185.858 34.8853C183.495 32.1792 179.715 30.8477 176.15 31.492V31.492Z" fill="#D2D1DA"/>
<path d="M224 28.1847C229.154 23.3739 237.101 21.7417 243.715 24.2759C249.987 26.6384 253.981 32.6088 256 38.7511C246.679 42.6169 237.401 46.4397 228.08 50.3055C229.369 52.7538 231.345 54.9874 234.008 55.8894C237.745 57.221 242.212 56.7485 245.348 54.2572C246.593 53.3122 247.581 52.0666 248.526 50.8639C250.889 52.4532 253.251 53.9995 255.613 55.5887C252.263 60.6142 246.636 64.1364 240.58 64.6948C233.879 65.5109 226.749 62.9337 222.411 57.6934C215.28 49.4464 215.968 35.6156 224 28.1847V28.1847ZM228.596 36.131C227.135 38.2357 226.534 40.8129 226.577 43.3471C232.805 40.7699 239.033 38.1927 245.262 35.5726C244.231 33.1672 241.74 31.7068 239.205 31.3202C235.125 30.59 230.872 32.7807 228.596 36.131V36.131Z" fill="#D2D1DA"/>
</g>
<defs>
<clipPath id="clip0_363_1416">
<rect width="256" height="83.5584" fill="white"/>
</clipPath>
</defs>
</svg>
