<svg width="256" height="65" viewBox="0 0 256 65" fill="none" xmlns="http://www.w3.org/2000/svg">
<g clip-path="url(#clip0_363_1408)">
<path fill-rule="evenodd" clip-rule="evenodd" d="M81.8994 51.0054L85.0943 43.5814C88.5452 46.1619 93.1429 47.5033 97.6792 47.5033C101.028 47.5033 103.147 46.2131 103.147 44.2572C103.096 38.7891 83.0873 43.0694 82.9337 29.3581C82.8825 22.3949 89.0674 17.0291 97.8328 17.0291C103.045 17.0291 108.247 18.3193 111.964 21.2582L108.974 28.8358C105.574 26.6649 101.345 25.1187 97.3208 25.1187C94.5868 25.1187 92.7845 26.4089 92.7845 28.0576C92.8357 33.4233 112.998 30.4845 113.203 43.5814C113.203 50.6982 107.172 55.7056 98.5087 55.7056C92.1599 55.6953 86.3333 54.2003 81.8994 51.0054V51.0054ZM204.585 40.8985C202.987 43.6838 199.997 45.5884 196.536 45.5884C191.426 45.5884 187.31 41.4617 187.31 36.3622C187.31 31.2627 191.437 27.136 196.536 27.136C199.987 27.136 202.987 29.0406 204.585 31.8259L213.401 26.9312C210.104 21.0534 203.755 17.0291 196.536 17.0291C185.856 17.0291 177.193 25.6921 177.193 36.3724C177.193 47.0528 185.856 55.7158 196.536 55.7158C203.807 55.7158 210.104 51.7427 213.401 45.8137L204.585 40.8985ZM117.637 0.983032H128.676V54.9785H117.637V0.983032ZM217.733 0.983032V54.9785H228.772V38.7788L241.869 54.9785H256L239.339 35.7376L254.761 17.7869H241.244L228.761 32.6861V0.983032H217.733Z" fill="#D2D1DA"/>
<path d="M161.475 41.0009C159.877 43.6326 156.58 45.5884 152.863 45.5884C147.753 45.5884 143.637 41.4617 143.637 36.3622C143.637 31.2626 147.763 27.1359 152.863 27.1359C156.58 27.1359 159.877 29.1942 161.475 31.877V41.0009ZM161.475 17.797V22.1798C159.672 19.1385 155.187 17.0188 150.487 17.0188C140.79 17.0188 133.161 25.5794 133.161 36.311C133.161 47.0425 140.79 55.7055 150.487 55.7055C155.177 55.7055 159.662 53.5961 161.475 50.5446V54.9273H172.513V17.797H161.475Z" fill="#D2D1DA"/>
<path fill-rule="evenodd" clip-rule="evenodd" d="M13.6705 40.9497C13.6705 44.7181 10.6292 47.7594 6.86087 47.7594C3.09255 47.7594 0.0512695 44.7078 0.0512695 40.9497C0.0512695 37.1917 3.09255 34.1401 6.86087 34.1401H13.6705V40.9497ZM17.0701 40.9497C17.0701 37.1814 20.1114 34.1401 23.8797 34.1401C27.6481 34.1401 30.6894 37.1814 30.6894 40.9497V57.9686C30.6894 61.737 27.6481 64.7783 23.8797 64.7783C20.1114 64.7783 17.0701 61.737 17.0701 57.9686V40.9497Z" fill="#D2D1DA"/>
<path fill-rule="evenodd" clip-rule="evenodd" d="M23.8797 13.6192C20.1114 13.6192 17.0701 10.5779 17.0701 6.8096C17.0701 3.04128 20.1114 0 23.8797 0C27.648 0 30.6893 3.04128 30.6893 6.8096V13.6192H23.8797ZM23.8797 17.0701C27.648 17.0701 30.6893 20.1114 30.6893 23.8797C30.6893 27.648 27.648 30.6893 23.8797 30.6893H6.8096C3.04128 30.6893 0 27.6378 0 23.8797C0 20.1216 3.04128 17.0701 6.8096 17.0701H23.8797Z" fill="#D2D1DA"/>
<path fill-rule="evenodd" clip-rule="evenodd" d="M51.159 23.8797C51.159 20.1114 54.2003 17.0701 57.9686 17.0701C61.7369 17.0701 64.7782 20.1114 64.7782 23.8797C64.7782 27.648 61.7369 30.6893 57.9686 30.6893H51.159V23.8797ZM47.7593 23.8797C47.7593 27.648 44.7181 30.6893 40.9497 30.6893C37.1814 30.6893 34.1401 27.648 34.1401 23.8797V6.8096C34.1401 3.04128 37.1814 0 40.9497 0C44.7181 0 47.7593 3.04128 47.7593 6.8096V23.8797Z" fill="#D2D1DA"/>
<path fill-rule="evenodd" clip-rule="evenodd" d="M40.9497 51.159C44.7181 51.159 47.7593 54.2003 47.7593 57.9686C47.7593 61.737 44.7181 64.7783 40.9497 64.7783C37.1814 64.7783 34.1401 61.737 34.1401 57.9686V51.159H40.9497ZM40.9497 47.7594C37.1814 47.7594 34.1401 44.7181 34.1401 40.9497C34.1401 37.1814 37.1814 34.1401 40.9497 34.1401H58.0198C61.7881 34.1401 64.8294 37.1814 64.8294 40.9497C64.8294 44.7181 61.7881 47.7594 58.0198 47.7594H40.9497Z" fill="#D2D1DA"/>
</g>
<defs>
<clipPath id="clip0_363_1408">
<rect width="256" height="64.7782" fill="white"/>
</clipPath>
</defs>
</svg>
