<svg width="256" height="77" viewBox="0 0 256 77" fill="none" xmlns="http://www.w3.org/2000/svg">
<g clip-path="url(#clip0_363_1423)">
<path d="M38.3904 0C17.1884 0 0 17.188 0 38.3899C0 59.5942 17.1884 76.7813 38.3904 76.7813C59.5933 76.7813 76.7808 59.5942 76.7808 38.3899C76.7808 17.1893 59.5942 0.00183232 38.3899 0.00183232L38.3904 0V0ZM55.996 55.3693C55.3065 56.5003 53.8331 56.8546 52.7058 56.1656C43.6908 50.6557 32.3437 49.4111 18.9804 52.4638C17.6927 52.759 16.4091 51.9517 16.1157 50.6644C15.8209 49.3767 16.6245 48.0931 17.9155 47.7997C32.5394 44.4564 45.0835 45.8954 55.2025 52.0787C56.3302 52.771 56.6877 54.2425 55.9955 55.3702L55.996 55.3693V55.3693ZM60.6949 44.9176C59.8266 46.3263 57.9847 46.7682 56.5778 45.9032C46.2608 39.5612 30.5287 37.7243 18.323 41.4294C16.7401 41.9075 15.0682 41.0154 14.5877 39.4352C14.111 37.8522 15.0035 36.1835 16.5837 35.7022C30.526 31.4718 47.8584 33.5209 59.7088 40.8032C61.1162 41.6696 61.5609 43.5125 60.6944 44.918L60.6949 44.9176ZM61.0983 34.0326C48.7234 26.6834 28.3113 26.0077 16.498 29.5931C14.601 30.1684 12.5949 29.0975 12.02 27.2005C11.4452 25.3026 12.5151 23.2979 14.4135 22.7212C27.9744 18.6045 50.5177 19.3999 64.763 27.8566C66.4693 28.8692 67.0291 31.0729 66.0177 32.7769C65.0092 34.4832 62.7995 35.0457 61.0988 34.0326H61.0983V34.0326ZM104.448 35.4409C97.8191 33.8602 96.6391 32.7508 96.6391 30.4196C96.6391 28.2174 98.7126 26.7353 101.796 26.7353C104.785 26.7353 107.749 27.8607 110.856 30.1776C110.95 30.2478 111.068 30.2757 111.184 30.2574C111.3 30.24 111.402 30.1762 111.47 30.0804L114.707 25.5181C114.84 25.3301 114.804 25.0711 114.624 24.9276C110.926 21.9602 106.762 20.5175 101.894 20.5175C94.7371 20.5175 89.738 24.8126 89.738 30.9579C89.738 37.5478 94.0504 39.8812 101.503 41.6824C107.846 43.1434 108.916 44.3674 108.916 46.5555C108.916 48.9802 106.751 50.4875 103.268 50.4875C99.3985 50.4875 96.2427 49.1842 92.7123 46.1269C92.6247 46.0512 92.5046 46.0169 92.3937 46.0233C92.2767 46.0329 92.1699 46.087 92.0957 46.1764L88.4667 50.4953C88.3145 50.6745 88.3338 50.9423 88.5098 51.0972C92.6174 54.7642 97.6693 56.7011 103.121 56.7011C110.833 56.7011 115.817 52.4872 115.817 45.9651C115.831 40.4593 112.534 37.4108 104.461 35.4468L104.448 35.4409V35.4409ZM133.265 28.9036C129.922 28.9036 127.18 30.2202 124.919 32.9181V29.8814C124.919 29.6417 124.724 29.4464 124.485 29.4464H118.55C118.31 29.4464 118.116 29.6417 118.116 29.8814V63.6229C118.116 63.8627 118.31 64.0579 118.55 64.0579H124.485C124.724 64.0579 124.919 63.8627 124.919 63.6229V52.9722C127.18 55.51 129.923 56.7501 133.265 56.7501C139.476 56.7501 145.764 51.9687 145.764 42.8285C145.773 33.686 139.483 28.9032 133.271 28.9032L133.265 28.9036ZM138.862 42.8285C138.862 47.4829 135.995 50.7309 131.89 50.7309C127.831 50.7309 124.77 47.3353 124.77 42.8285C124.77 38.3221 127.831 34.926 131.89 34.926C135.929 34.9256 138.863 38.2483 138.863 42.828L138.862 42.8285V42.8285ZM161.88 28.9036C153.881 28.9036 147.614 35.0631 147.614 42.9279C147.614 50.7071 153.838 56.8019 161.782 56.8019C169.809 56.8019 176.095 50.6631 176.095 42.8285C176.095 35.0209 169.852 28.9045 161.879 28.9045L161.88 28.9036V28.9036ZM161.88 50.7772C157.625 50.7772 154.418 47.3587 154.418 42.8262C154.418 38.2744 157.514 34.9714 161.782 34.9714C166.064 34.9714 169.293 38.3899 169.293 42.9256C169.293 47.4765 166.176 50.7772 161.88 50.7772H161.88V50.7772ZM193.177 29.4464H186.646V22.7689C186.646 22.5296 186.452 22.3343 186.213 22.3343H180.278C180.038 22.3343 179.843 22.5296 179.843 22.7689V29.4464H176.989C176.75 29.4464 176.557 29.6417 176.557 29.8815V34.9824C176.557 35.2217 176.75 35.4175 176.989 35.4175H179.843V48.6162C179.843 53.95 182.498 56.6543 187.734 56.6543C189.863 56.6543 191.629 56.2147 193.293 55.2708C193.429 55.1951 193.513 55.0494 193.513 54.8944V50.0369C193.513 49.8869 193.435 49.7453 193.306 49.6669C193.177 49.5858 193.016 49.5816 192.884 49.6472C191.74 50.2225 190.635 50.488 189.399 50.488C187.495 50.488 186.646 49.6234 186.646 47.6856V35.4198H193.177C193.417 35.4198 193.61 35.2245 193.61 34.9848V29.8842C193.619 29.6445 193.426 29.4492 193.183 29.4492L193.177 29.4464V29.4464ZM215.934 29.4725V28.6524C215.934 26.2397 216.859 25.1637 218.934 25.1637C220.171 25.1637 221.165 25.4094 222.278 25.7808C222.415 25.8239 222.558 25.8023 222.669 25.7203C222.784 25.6382 222.849 25.5066 222.849 25.3673V20.3658C222.849 20.1746 222.726 20.0055 222.541 19.9491C221.365 19.5993 219.861 19.2403 217.608 19.2403C212.126 19.2403 209.229 22.3274 209.229 28.1646V29.4207H206.377C206.138 29.4207 205.942 29.616 205.942 29.8553V34.9824C205.942 35.2217 206.138 35.4174 206.377 35.4174H209.229V55.7759C209.229 56.0157 209.422 56.2109 209.661 56.2109H215.597C215.836 56.2109 216.032 56.0157 216.032 55.7759V35.4189H221.573L230.062 55.7723C229.098 57.9109 228.151 58.3363 226.857 58.3363C225.811 58.3363 224.71 58.0241 223.584 57.408C223.478 57.3497 223.353 57.3401 223.239 57.3754C223.125 57.4153 223.03 57.4996 222.982 57.6097L220.97 62.023C220.875 62.2316 220.957 62.4764 221.157 62.5846C223.257 63.7219 225.153 64.2074 227.496 64.2074C231.879 64.2074 234.301 62.166 236.436 56.674L246.733 30.0666C246.785 29.9328 246.77 29.7815 246.687 29.6628C246.606 29.5449 246.474 29.4739 246.33 29.4739H240.152C239.966 29.4739 239.801 29.5917 239.74 29.7655L233.411 47.8451L226.478 29.7536C226.415 29.5853 226.252 29.4739 226.073 29.4739H215.932L215.934 29.4725V29.4725ZM202.74 29.4464H196.805C196.565 29.4464 196.37 29.6417 196.37 29.8815V55.7759C196.37 56.0157 196.565 56.211 196.805 56.211H202.74C202.979 56.211 203.175 56.0157 203.175 55.7759V29.8833C203.175 29.8261 203.164 29.7694 203.142 29.7165C203.12 29.6636 203.088 29.6156 203.048 29.5752C203.007 29.5348 202.959 29.5027 202.906 29.4809C202.853 29.4592 202.797 29.448 202.739 29.4482L202.74 29.4464ZM199.806 17.656C197.455 17.656 195.547 19.5594 195.547 21.9107C195.547 24.2634 197.455 26.1691 199.806 26.1691C202.156 26.1691 204.062 24.2634 204.062 21.9107C204.062 19.5599 202.155 17.656 199.808 17.656H199.806V17.656ZM251.801 37.772C249.452 37.772 247.624 35.8855 247.624 33.5947C247.624 31.304 249.476 29.396 251.823 29.396C254.172 29.396 256 31.282 256 33.5709C256 35.8617 254.148 37.772 251.801 37.772H251.801V37.772ZM251.824 29.8113C249.685 29.8113 248.066 31.5121 248.066 33.5947C248.066 35.6765 249.673 37.3544 251.803 37.3544C253.942 37.3544 255.562 35.655 255.562 33.5709C255.562 31.4892 253.953 29.8113 251.826 29.8113H251.824V29.8113ZM252.75 34.0004L253.932 35.6545H252.935L251.872 34.1371H250.957V35.6545H250.123V31.27H252.079C253.097 31.27 253.767 31.7913 253.767 32.6687C253.772 33.3876 253.354 33.8267 252.754 34.0005H252.75V34.0004ZM252.044 32.0223H250.957V33.4091H252.044C252.587 33.4091 252.911 33.1437 252.911 32.715C252.911 32.264 252.586 32.0224 252.045 32.0224H252.044V32.0223Z" fill="#D2D1DA"/>
</g>
<defs>
<clipPath id="clip0_363_1423">
<rect width="256" height="76.7813" fill="white"/>
</clipPath>
</defs>
</svg>
