<svg width="36" height="36" viewBox="0 0 36 36" fill="none" xmlns="http://www.w3.org/2000/svg">
<rect width="36" height="36" rx="4" fill="white"/>
<g clip-path="url(#clip0_1303_2847)">
<mask id="mask0_1303_2847" style="mask-type:luminance" maskUnits="userSpaceOnUse" x="1" y="1" width="34" height="34">
<path d="M34.1969 1.80078H1.79688V34.2008H34.1969V1.80078Z" fill="white"/>
</mask>
<g mask="url(#mask0_1303_2847)">
<path d="M30.1265 7.98932L20.6022 2.49644C18.9938 1.56886 16.9953 1.56893 15.3869 2.49644L5.86256 7.98932C4.25104 8.9186 3.25 10.6517 3.25 12.5121V23.4893C3.25 25.3498 4.25104 27.0829 5.8625 28.0122L15.3869 33.5051C16.9955 34.4328 18.994 34.4325 20.6022 33.5051L30.1265 28.0122C31.738 27.0829 32.739 25.3498 32.739 23.4893V12.5121C32.739 10.6517 31.738 8.91866 30.1265 7.98932ZM30.2078 23.4893C30.2078 24.4477 29.6922 25.3404 28.862 25.8191L19.3377 31.312C18.5091 31.7899 17.4798 31.7899 16.6513 31.312L7.12692 25.8191C6.29686 25.3404 5.78125 24.4477 5.78125 23.4893V12.5121C5.78125 11.5539 6.29686 10.6612 7.12698 10.1825L16.6513 4.68964C17.4799 4.21174 18.5095 4.21194 19.3378 4.68964L28.8621 10.1825C29.6922 10.6612 30.2078 11.5538 30.2078 12.5121V23.4893Z" fill="#456EED"/>
<path d="M16.7916 17.0354L12.091 13.0574C11.5575 12.6058 10.7588 12.6723 10.3073 13.206C9.85579 13.7398 9.92236 14.5384 10.456 14.99L14.0148 18.0018L10.456 21.0136C9.92236 21.4651 9.85585 22.2638 10.3073 22.7975C10.7599 23.3323 11.5588 23.3966 12.091 22.9461L16.7916 18.9681C17.3896 18.462 17.3879 17.5401 16.7916 17.0354Z" fill="#456EED"/>
<path d="M24.7184 20.7148H19.0235C18.3245 20.7148 17.7578 21.2816 17.7578 21.9807C17.7578 22.6798 18.3245 23.2465 19.0235 23.2465H24.7184C25.4174 23.2465 25.9841 22.6798 25.9841 21.9807C25.9841 21.2816 25.4174 20.7148 24.7184 20.7148Z" fill="#456EED"/>
</g>
</g>
<defs>
<clipPath id="clip0_1303_2847">
<rect width="32.4" height="32.4" fill="white" transform="translate(1.79688 1.80078)"/>
</clipPath>
</defs>
</svg>
