<svg width="36" height="36" viewBox="0 0 36 36" fill="none" xmlns="http://www.w3.org/2000/svg">
<g clip-path="url(#clip0_14_63)">
<path d="M31.48 6.87615L20.8974 0.772954C19.1103 -0.257687 16.8898 -0.257616 15.1026 0.772954L4.52004 6.87615C2.72946 7.90869 1.61719 9.83434 1.61719 11.9015V24.0984C1.61719 26.1656 2.72946 28.0913 4.51997 29.1238L15.1026 35.227C16.89 36.2578 19.1105 36.2575 20.8974 35.227L31.48 29.1238C33.2705 28.0913 34.3828 26.1656 34.3828 24.0984V11.9015C34.3828 9.83441 33.2705 7.90876 31.48 6.87615ZM31.5703 24.0984C31.5703 25.1632 30.9974 26.1551 30.075 26.687L19.4924 32.7902C18.5718 33.3212 17.4281 33.3212 16.5075 32.7902L5.92488 26.687C5.00259 26.1551 4.42969 25.1632 4.42969 24.0984V11.9015C4.42969 10.8368 5.00259 9.84488 5.92495 9.31304L16.5075 3.20984C17.4282 2.67884 18.5722 2.67906 19.4925 3.20984L30.0751 9.31297C30.9974 9.84488 31.5703 10.8367 31.5703 11.9015V24.0984Z" fill="#456EED"/>
<path d="M16.6636 16.9262L11.4408 12.5062C10.848 12.0044 9.96054 12.0783 9.45886 12.6713C8.95718 13.2644 9.03115 14.1518 9.62403 14.6535L13.5783 18L9.62403 21.3464C9.03115 21.8481 8.95725 22.7355 9.45886 23.3285C9.96174 23.9228 10.8494 23.9942 11.4408 23.4936L16.6636 19.0736C17.3281 18.5113 17.3262 17.487 16.6636 16.9262Z" fill="#456EED"/>
<path d="M25.4675 21.0135H19.1398C18.3631 21.0135 17.7335 21.6432 17.7335 22.42C17.7335 23.1968 18.3631 23.8265 19.1398 23.8265H25.4675C26.2441 23.8265 26.8738 23.1968 26.8738 22.42C26.8738 21.6432 26.2442 21.0135 25.4675 21.0135Z" fill="#456EED"/>
</g>
<defs>
<clipPath id="clip0_14_63">
<rect width="36" height="36" fill="white"/>
</clipPath>
</defs>
</svg>
