<svg width="193" height="42" viewBox="0 0 193 42" fill="none" xmlns="http://www.w3.org/2000/svg">
<path d="M51.264 11.54V23.944C51.264 25.4187 51.6467 26.5293 52.412 27.276C53.196 28.0227 54.2787 28.396 55.66 28.396C57.06 28.396 58.1427 28.0227 58.908 27.276C59.692 26.5293 60.084 25.4187 60.084 23.944V11.54H63.276V23.888C63.276 25.4747 62.9307 26.8187 62.24 27.92C61.5493 29.0213 60.6253 29.8427 59.468 30.384C58.3107 30.9253 57.032 31.196 55.632 31.196C54.232 31.196 52.9533 30.9253 51.796 30.384C50.6573 29.8427 49.752 29.0213 49.08 27.92C48.408 26.8187 48.072 25.4747 48.072 23.888V11.54H51.264ZM87.928 11.54V31H84.736V17.672L78.8 31H76.588L70.624 17.672V31H67.432V11.54H70.876L77.708 26.8L84.512 11.54H87.928ZM102.847 31L95.3154 22.292V31H92.1234V11.54H95.3154V20.416L102.875 11.54H106.879L98.4234 21.284L107.019 31H102.847ZM130.338 11.54V31H127.146V17.672L121.21 31H118.998L113.034 17.672V31H109.842V11.54H113.286L120.118 26.8L126.922 11.54H130.338Z" fill="#211B3D"/>
<path d="M149.15 17.672C149.15 18.8107 148.888 19.856 148.366 20.808C147.843 21.7413 147.04 22.4973 145.958 23.076C144.875 23.6547 143.531 23.944 141.926 23.944H138.958V31H134.17V11.344H141.926C143.494 11.344 144.819 11.6147 145.902 12.156C146.984 12.6973 147.796 13.444 148.338 14.396C148.879 15.348 149.15 16.44 149.15 17.672ZM141.562 20.136C142.476 20.136 143.158 19.9213 143.606 19.492C144.054 19.0627 144.278 18.456 144.278 17.672C144.278 16.888 144.054 16.2813 143.606 15.852C143.158 15.4227 142.476 15.208 141.562 15.208H138.958V20.136H141.562ZM156.43 10.28V31H151.642V10.28H156.43ZM175.328 15.376V31H170.54V28.872C170.055 29.5627 169.392 30.1227 168.552 30.552C167.731 30.9627 166.816 31.168 165.808 31.168C164.613 31.168 163.559 30.9067 162.644 30.384C161.729 29.8427 161.02 29.068 160.516 28.06C160.012 27.052 159.76 25.8667 159.76 24.504V15.376H164.52V23.86C164.52 24.9053 164.791 25.7173 165.332 26.296C165.873 26.8747 166.601 27.164 167.516 27.164C168.449 27.164 169.187 26.8747 169.728 26.296C170.269 25.7173 170.54 24.9053 170.54 23.86V15.376H175.328ZM185.123 31.224C183.761 31.224 182.547 30.9907 181.483 30.524C180.419 30.0573 179.579 29.4227 178.963 28.62C178.347 27.7987 178.002 26.884 177.927 25.876H182.659C182.715 26.4173 182.967 26.856 183.415 27.192C183.863 27.528 184.414 27.696 185.067 27.696C185.665 27.696 186.122 27.584 186.439 27.36C186.775 27.1173 186.943 26.8093 186.943 26.436C186.943 25.988 186.71 25.6613 186.243 25.456C185.777 25.232 185.021 24.9893 183.975 24.728C182.855 24.4667 181.922 24.196 181.175 23.916C180.429 23.6173 179.785 23.16 179.243 22.544C178.702 21.9093 178.431 21.06 178.431 19.996C178.431 19.1 178.674 18.288 179.159 17.56C179.663 16.8133 180.391 16.2253 181.343 15.796C182.314 15.3667 183.462 15.152 184.787 15.152C186.747 15.152 188.287 15.6373 189.407 16.608C190.546 17.5787 191.199 18.8667 191.367 20.472H186.943C186.869 19.9307 186.626 19.5013 186.215 19.184C185.823 18.8667 185.301 18.708 184.647 18.708C184.087 18.708 183.658 18.82 183.359 19.044C183.061 19.2493 182.911 19.5387 182.911 19.912C182.911 20.36 183.145 20.696 183.611 20.92C184.097 21.144 184.843 21.368 185.851 21.592C187.009 21.8907 187.951 22.1893 188.679 22.488C189.407 22.768 190.042 23.2347 190.583 23.888C191.143 24.5227 191.433 25.3813 191.451 26.464C191.451 27.3787 191.19 28.2 190.667 28.928C190.163 29.6373 189.426 30.1973 188.455 30.608C187.503 31.0187 186.393 31.224 185.123 31.224Z" fill="#456EED"/>
<g clip-path="url(#clip0_14_63)">
<path d="M31.48 9.87615L20.8974 3.77295C19.1103 2.74231 16.8898 2.74238 15.1026 3.77295L4.52004 9.87615C2.72946 10.9087 1.61719 12.8343 1.61719 14.9015V27.0984C1.61719 29.1656 2.72946 31.0913 4.51997 32.1238L15.1026 38.227C16.89 39.2578 19.1105 39.2575 20.8974 38.227L31.48 32.1238C33.2705 31.0913 34.3828 29.1656 34.3828 27.0984V14.9015C34.3828 12.8344 33.2705 10.9088 31.48 9.87615ZM31.5703 27.0984C31.5703 28.1632 30.9974 29.1551 30.075 29.687L19.4924 35.7902C18.5718 36.3212 17.4281 36.3212 16.5075 35.7902L5.92488 29.687C5.00259 29.1551 4.42969 28.1632 4.42969 27.0984V14.9015C4.42969 13.8368 5.00259 12.8449 5.92495 12.313L16.5075 6.20984C17.4282 5.67884 18.5722 5.67906 19.4925 6.20984L30.0751 12.313C30.9974 12.8449 31.5703 13.8367 31.5703 14.9015V27.0984Z" fill="#456EED"/>
<path d="M16.6636 19.9262L11.4408 15.5062C10.848 15.0044 9.96054 15.0783 9.45886 15.6713C8.95718 16.2644 9.03115 17.1518 9.62403 17.6535L13.5783 21L9.62403 24.3464C9.03115 24.8481 8.95725 25.7355 9.45886 26.3285C9.96174 26.9228 10.8494 26.9942 11.4408 26.4936L16.6636 22.0736C17.3281 21.5113 17.3262 20.487 16.6636 19.9262Z" fill="#456EED"/>
<path d="M25.4675 24.0135H19.1398C18.3631 24.0135 17.7335 24.6432 17.7335 25.42C17.7335 26.1968 18.3631 26.8265 19.1398 26.8265H25.4675C26.2441 26.8265 26.8738 26.1968 26.8738 25.42C26.8738 24.6432 26.2442 24.0135 25.4675 24.0135Z" fill="#456EED"/>
</g>
<defs>
<clipPath id="clip0_14_63">
<rect width="36" height="36" fill="white" transform="translate(0 3)"/>
</clipPath>
</defs>
</svg>
