<svg width="109" height="23" viewBox="0 0 109 23" fill="none" xmlns="http://www.w3.org/2000/svg">
<path d="M26.6416 12.8398V6.12426H28.823V12.8554C28.823 14.3512 29.6332 15.1302 31.0199 15.1302C32.4223 15.1302 33.2325 14.3512 33.2325 12.8554V6.12426H35.4294V12.8398C35.4294 15.7068 33.3727 17.1091 30.9888 17.1091C28.6048 17.1091 26.6416 15.7068 26.6416 12.8398ZM37.5371 17V6.12426H40.0145L43.4735 14.211L46.9326 6.12426H49.3944V17H47.213V9.9261L44.2993 17H42.6477L39.7184 9.9261V17H37.5371ZM57.6901 17L53.7325 12.1542V17H51.5511V6.12426H53.7325V11.0012L57.6901 6.12426H60.3233L55.8359 11.5154L60.448 17H57.6901ZM61.8828 17V6.12426H64.3602L67.8193 14.211L71.2783 6.12426H73.7402V17H71.5588V9.9261L68.6451 17H66.9935L64.0642 9.9261V17H61.8828ZM78.4522 10.9545H79.9012C80.9608 10.9545 81.4126 10.4247 81.4126 9.58331C81.4126 8.74192 80.9608 8.21216 79.9012 8.21216H78.4522V10.9545ZM84.1238 9.58331C84.1238 11.3907 82.8928 13.0735 80.1038 13.0735H78.4522V17H75.7878V6.06194H80.1038C82.7838 6.06194 84.1238 7.57332 84.1238 9.58331ZM85.5109 17V5.46985H88.1753V17H85.5109ZM98.6914 8.30564V17H96.027V15.8158C95.4972 16.5637 94.5624 17.0935 93.3938 17.0935C91.3838 17.0935 90.0282 15.7068 90.0282 13.3851V8.30564H92.677V13.0268C92.677 14.211 93.347 14.8654 94.3442 14.8654C95.3726 14.8654 96.027 14.211 96.027 13.0268V8.30564H98.6914ZM107.664 14.4758C107.664 15.9872 106.324 17.1247 104.142 17.1247C101.821 17.1247 100.262 15.8314 100.138 14.1486H102.771C102.833 14.7563 103.379 15.1614 104.111 15.1614C104.797 15.1614 105.155 14.8498 105.155 14.4603C105.155 13.0579 100.418 14.0707 100.418 10.8766C100.418 9.39633 101.68 8.18099 103.955 8.18099C106.199 8.18099 107.445 9.4275 107.617 11.1414H105.155C105.077 10.5493 104.625 10.1598 103.877 10.1598C103.254 10.1598 102.911 10.4091 102.911 10.8298C102.911 12.2165 107.617 11.2349 107.664 14.4758Z" fill="white"/>
<g clip-path="url(#clip0_470_1402)">
<path d="M17.5178 5.49583L11.6288 2.09956C10.6344 1.52604 9.3987 1.52608 8.40421 2.09956L2.51526 5.49583C1.51885 6.07042 0.899902 7.14199 0.899902 8.29233V15.0796C0.899902 16.2299 1.51885 17.3015 2.51523 17.8761L8.40421 21.2724C9.39886 21.846 10.6345 21.8458 11.6288 21.2724L17.5178 17.8761C18.5142 17.3015 19.1331 16.2299 19.1331 15.0796V8.29233C19.1331 7.14203 18.5142 6.07045 17.5178 5.49583ZM17.568 15.0796C17.568 15.6721 17.2492 16.2241 16.736 16.5201L10.847 19.9163C10.3347 20.2118 9.6983 20.2118 9.18601 19.9163L3.29702 16.5201C2.78379 16.2241 2.46499 15.6721 2.46499 15.0796V8.29233C2.46499 7.69983 2.78379 7.14786 3.29706 6.8519L9.18601 3.45563C9.69834 3.16014 10.3349 3.16026 10.847 3.45563L16.736 6.85186C17.2492 7.14786 17.568 7.69979 17.568 8.29233V15.0796Z" fill="white"/>
<path d="M9.27257 11.0885L6.36617 8.62882C6.03629 8.34961 5.54247 8.39073 5.2633 8.72073C4.98413 9.05073 5.02529 9.54455 5.35521 9.82376L7.55564 11.686L5.35521 13.5482C5.02529 13.8274 4.98417 14.3212 5.2633 14.6512C5.54314 14.9819 6.03708 15.0216 6.36617 14.7431L9.27257 12.2834C9.64232 11.9705 9.64127 11.4005 9.27257 11.0885Z" fill="white"/>
<path d="M14.1719 13.3628H10.6507C10.2185 13.3628 9.86816 13.7132 9.86816 14.1455C9.86816 14.5777 10.2185 14.9281 10.6507 14.9281H14.1719C14.6041 14.9281 14.9545 14.5777 14.9545 14.1455C14.9545 13.7132 14.6041 13.3628 14.1719 13.3628Z" fill="white"/>
</g>
<defs>
<clipPath id="clip0_470_1402">
<rect width="20.0331" height="20.0331" fill="white" transform="translate(0 1.66943)"/>
</clipPath>
</defs>
</svg>
