<svg width="512" height="512" viewBox="0 0 512 512" fill="none" xmlns="http://www.w3.org/2000/svg">
<rect width="512" height="512" fill="#F8F8F8"/>
<g filter="url(#filter0_d_510_1421)">
<circle cx="255.335" cy="255.335" r="165.335" fill="white"/>
<path d="M255 152C241.531 152 231.231 162.3 231.231 175.769V223.308C231.231 236.777 241.531 247.077 255 247.077H302.538L334.231 278.769V247.077C347.7 247.077 358 236.777 358 223.308V175.769C358 162.3 347.7 152 334.231 152H255ZM288.182 175.769H301.794L315.168 223.308H303.283L300.059 211.423H288.174L285.211 223.308H274.808L288.182 175.769ZM294.615 183.692C293.823 186.862 292.936 190.728 292.135 193.105L289.917 203.5H299.322L297.087 193.097C295.511 190.728 294.615 186.862 294.615 183.692ZM175.769 231.231C162.3 231.231 152 241.531 152 255V302.538C152 316.008 162.3 326.308 175.769 326.308V358L207.462 326.308H255C268.469 326.308 278.769 316.008 278.769 302.538V255H255C239.946 255 228.014 244.7 224.052 231.231H175.769ZM212.168 254.255C225.637 254.255 231.976 265.348 231.976 278.024C231.976 289.117 228.165 296.152 221.826 299.322C224.995 300.906 228.751 301.746 232.712 302.538L229.749 310.462C224.203 308.877 218.451 306.405 212.905 304.02C212.112 303.228 210.726 303.283 209.934 303.283C200.426 302.491 191.615 294.615 191.615 278.769C191.615 265.3 199.491 254.255 212.168 254.255ZM212.168 262.923C205.829 262.923 202.755 270.054 202.755 278.769C202.755 288.277 205.829 294.615 212.168 294.615C218.506 294.615 221.818 287.485 221.818 278.769C221.818 270.054 218.506 262.923 212.168 262.923Z" fill="#3B63DD"/>
<path d="M238.135 266.445C224.665 266.445 241.146 274.057 241.146 287.526V294.615C241.146 308.085 222.256 321.86 235.725 321.86H241.146L244.76 317.041L246.567 321.86H251.988C265.458 321.86 271.263 323.931 271.263 310.462V304.02C271.263 290.551 282.925 259.819 269.456 259.819L238.135 266.445ZM244.76 278.025L269.456 266.445L255 317.041H251.988L250.181 310.462V302.539L246.567 303.283V310.462H241.146L244.76 278.025ZM251.988 278.769C251.196 281.939 250.982 285.149 250.181 287.526L247.772 295.357L251.988 299.322L256.807 287.526C255.23 285.157 254.46 272.978 251.988 278.769ZM175.769 231.231C162.3 231.231 152 241.531 152 255V302.539C152 316.008 162.3 326.308 175.769 326.308V358L207.462 326.308H255C268.469 326.308 278.769 316.008 278.769 302.539V255H255C239.946 255 228.014 244.7 224.052 231.231H175.769ZM212.168 254.255C225.637 254.255 231.976 265.348 231.976 278.025C231.976 289.117 228.165 296.153 221.826 299.322C224.995 300.906 228.751 301.746 232.712 302.539L229.749 310.462C224.203 308.877 218.451 306.405 212.905 304.02C212.112 303.228 210.726 303.283 209.934 303.283C200.426 302.491 191.615 294.615 191.615 278.769C191.615 265.3 199.491 254.255 212.168 254.255ZM212.168 262.923C205.829 262.923 202.755 270.054 202.755 278.769C202.755 288.277 205.829 294.615 212.168 294.615C218.506 294.615 221.818 287.485 221.818 278.769C221.818 270.054 218.506 262.923 212.168 262.923Z" fill="#FFC107"/>
</g>
<defs>
<filter id="filter0_d_510_1421" x="83" y="85" width="344.67" height="344.67" filterUnits="userSpaceOnUse" color-interpolation-filters="sRGB">
<feFlood flood-opacity="0" result="BackgroundImageFix"/>
<feColorMatrix in="SourceAlpha" type="matrix" values="0 0 0 0 0 0 0 0 0 0 0 0 0 0 0 0 0 0 127 0" result="hardAlpha"/>
<feOffset dy="2"/>
<feGaussianBlur stdDeviation="3.5"/>
<feComposite in2="hardAlpha" operator="out"/>
<feColorMatrix type="matrix" values="0 0 0 0 0.254902 0 0 0 0 0.341176 0 0 0 0 1 0 0 0 0.13 0"/>
<feBlend mode="normal" in2="BackgroundImageFix" result="effect1_dropShadow_510_1421"/>
<feBlend mode="normal" in="SourceGraphic" in2="effect1_dropShadow_510_1421" result="shape"/>
</filter>
</defs>
</svg>
